{
    "asset" : {
        "generator" : "Khronos glTF Blender I/O v0.9.6",
        "version" : "2.0"
    },
    "scene" : 0,
    "scenes" : [
        {
            "name" : "Scene",
            "nodes" : [
                0,
                1,
                2
            ]
        }
    ],
    "nodes" : [
        {
            "name" : "Cube",
            "mesh" : 0,
            "translation" : [
                -2.2526376247406006,
                0,
                0
            ]
        },
        {
            "name" : "Lamp",
            "rotation" : [
                0.16907575726509094,
                0.7558803558349609,
                -0.27217137813568115,
                0.570947527885437
            ],
            "translation" : [
                4.076245307922363,
                5.903861999511719,
                -1.0054539442062378
            ]
        },
        {
            "name" : "Camera",
            "rotation" : [
                0.48170700669288635,
                0.3342514932155609,
                -0.21292176842689514,
                0.7816000580787659
            ],
            "translation" : [
                7.481131553649902,
                5.34366512298584,
                6.5076398849487305
            ]
        }
    ],
    "materials" : [
        {
            "name" : "Material",
            "doubleSided" : true,
            "pbrMetallicRoughness" : {}
        },
        {
            "name" : "Material.001",
            "doubleSided" : true,
            "pbrMetallicRoughness" : {}
        },
        {
            "name" : "Material.003",
            "doubleSided" : true,
            "pbrMetallicRoughness" : {}
        },
        {
            "name" : "Material.002",
            "doubleSided" : true,
            "pbrMetallicRoughness" : {}
        },
        {
            "name" : "Material.005",
            "doubleSided" : true,
            "pbrMetallicRoughness" : {}
        },
        {
            "name" : "Material.004",
            "doubleSided" : true,
            "pbrMetallicRoughness" : {}
        }
    ],
    "meshes" : [
        {
            "name" : "Cube",
            "primitives" : [
                {
                    "indices" : 2,
                    "material" : 0,
                    "attributes" : {
                        "POSITION" : 0,
                        "NORMAL" : 1
                    }
                },
                {
                    "indices" : 2,
                    "material" : 1,
                    "attributes" : {
                        "POSITION" : 3,
                        "NORMAL" : 4
                    }
                },
                {
                    "indices" : 7,
                    "material" : 2,
                    "attributes" : {
                        "POSITION" : 5,
                        "NORMAL" : 6
                    }
                },
                {
                    "indices" : 2,
                    "material" : 3,
                    "attributes" : {
                        "POSITION" : 8,
                        "NORMAL" : 9
                    }
                },
                {
                    "indices" : 12,
                    "material" : 4,
                    "attributes" : {
                        "POSITION" : 10,
                        "NORMAL" : 11
                    }
                },
                {
                    "indices" : 15,
                    "material" : 5,
                    "attributes" : {
                        "POSITION" : 13,
                        "NORMAL" : 14
                    }
                }
            ]
        }
    ],
    "accessors" : [
        {
            "count" : 12,
            "min" : [
                -0.9000003933906555,
                3,
                -2.8999996185302734
            ],
            "componentType" : 5126,
            "bufferView" : 0,
            "max" : [
                2.905001640319824,
                3,
                0.9050016403198242
            ],
            "type" : "VEC3"
        },
        {
            "count" : 12,
            "type" : "VEC3",
            "componentType" : 5126,
            "bufferView" : 1
        },
        {
            "count" : 18,
            "type" : "SCALAR",
            "componentType" : 5123,
            "bufferView" : 2
        },
        {
            "count" : 12,
            "min" : [
                -0.9000003933906555,
                -0.9000000357627869,
                -2.899998426437378
            ],
            "componentType" : 5126,
            "bufferView" : 3,
            "max" : [
                3.0000016689300537,
                2.9000000953674316,
                1.0000005960464478
            ],
            "type" : "VEC3"
        },
        {
            "count" : 12,
            "type" : "VEC3",
            "componentType" : 5126,
            "bufferView" : 4
        },
        {
            "count" : 24,
            "min" : [
                -1.0000003576278687,
                -0.9000000357627869,
                -2.999999523162842
            ],
            "componentType" : 5126,
            "bufferView" : 5,
            "max" : [
                2.905001640319824,
                2.9000000953674316,
                0.905000627040863
            ],
            "type" : "VEC3"
        },
        {
            "count" : 24,
            "type" : "VEC3",
            "componentType" : 5126,
            "bufferView" : 6
        },
        {
            "count" : 36,
            "type" : "SCALAR",
            "componentType" : 5123,
            "bufferView" : 7
        },
        {
            "count" : 12,
            "min" : [
                -0.9000003933906555,
                -0.9000000357627869,
                -2.899998426437378
            ],
            "componentType" : 5126,
            "bufferView" : 8,
            "max" : [
                3.0000016689300537,
                2.9000000953674316,
                1.0000016689300537
            ],
            "type" : "VEC3"
        },
        {
            "count" : 12,
            "type" : "VEC3",
            "componentType" : 5126,
            "bufferView" : 9
        },
        {
            "count" : 525,
            "min" : [
                -1.0000003576278687,
                -1,
                -2.999999523162842
            ],
            "componentType" : 5126,
            "bufferView" : 10,
            "max" : [
                3.0000016689300537,
                3,
                1.0000016689300537
            ],
            "type" : "VEC3"
        },
        {
            "count" : 525,
            "type" : "VEC3",
            "componentType" : 5126,
            "bufferView" : 11
        },
        {
            "count" : 1056,
            "type" : "SCALAR",
            "componentType" : 5123,
            "bufferView" : 12
        },
        {
            "count" : 28,
            "min" : [
                -1.0000003576278687,
                -1,
                -2.999999523162842
            ],
            "componentType" : 5126,
            "bufferView" : 13,
            "max" : [
                2.905001640319824,
                2.9000000953674316,
                0.9050016403198242
            ],
            "type" : "VEC3"
        },
        {
            "count" : 28,
            "type" : "VEC3",
            "componentType" : 5126,
            "bufferView" : 14
        },
        {
            "count" : 42,
            "type" : "SCALAR",
            "componentType" : 5123,
            "bufferView" : 15
        }
    ],
    "bufferViews" : [
        {
            "byteOffset" : 0,
            "buffer" : 0,
            "byteLength" : 144
        },
        {
            "byteOffset" : 144,
            "buffer" : 0,
            "byteLength" : 144
        },
        {
            "byteOffset" : 288,
            "buffer" : 0,
            "byteLength" : 36
        },
        {
            "byteOffset" : 324,
            "buffer" : 0,
            "byteLength" : 144
        },
        {
            "byteOffset" : 468,
            "buffer" : 0,
            "byteLength" : 144
        },
        {
            "byteOffset" : 612,
            "buffer" : 0,
            "byteLength" : 288
        },
        {
            "byteOffset" : 900,
            "buffer" : 0,
            "byteLength" : 288
        },
        {
            "byteOffset" : 1188,
            "buffer" : 0,
            "byteLength" : 72
        },
        {
            "byteOffset" : 1260,
            "buffer" : 0,
            "byteLength" : 144
        },
        {
            "byteOffset" : 1404,
            "buffer" : 0,
            "byteLength" : 144
        },
        {
            "byteOffset" : 1548,
            "buffer" : 0,
            "byteLength" : 6300
        },
        {
            "byteOffset" : 7848,
            "buffer" : 0,
            "byteLength" : 6300
        },
        {
            "byteOffset" : 14148,
            "buffer" : 0,
            "byteLength" : 2112
        },
        {
            "byteOffset" : 16260,
            "buffer" : 0,
            "byteLength" : 336
        },
        {
            "byteOffset" : 16596,
            "buffer" : 0,
            "byteLength" : 336
        },
        {
            "byteOffset" : 16932,
            "buffer" : 0,
            "byteLength" : 84
        }
    ],
    "buffers" : [
        {
            "uri" : "data:application/octet-stream;base64,",
            "byteLength" : 17016
        }
    ]
}
